<svg id="drop-area" data-name="Layer 1" xmlns="http://www.w3.org/2000/svg" viewBox="0 0 1183 385">
  <defs>
    <style>
      .bgcolor {
        fill: #fff;
      }
    </style>
  </defs>
  <title>drop-area</title>
  <g>
    <path d="M1182,1.38v383H1.48V1.38H1182m1-1H.48v385H1183V.38Z"/>
    <g>
      <polygon class="bgcolor" points="21.72 13.91 152.79 23.84 152.79 361.91 21.72 371.84 21.72 13.91"/>
      <path d="M22.22,14.45,152.29,24.3V361.45L22.22,371.3V14.45m-1-1.07v359l132.07-10v-339l-132.07-10Z"/>
    </g>
    <g>
      <polygon class="bgcolor" points="72.15 49.5 42.15 7.5 1142.88 7.5 1112.88 49.5 72.15 49.5"/>
      <path d="M1141.91,8l-29.28,41H72.41L43.12,8H1141.91m1.95-1H41.18L71.9,50H1113.14l30.72-43Z"/>
    </g>
    <g>
      <polygon class="bgcolor" points="1032.24 361.91 1032.24 23.84 1163.32 13.91 1163.32 371.84 1032.24 361.91"/>
      <path d="M1162.82,14.45V371.3l-130.08-9.85V24.3l130.08-9.85m1-1.07-132.08,10v339l132.08,10v-359Z"/>
    </g>
    <g>
      <polygon class="bgcolor" points="42.15 378.5 72.15 336.5 1112.88 336.5 1142.88 378.5 42.15 378.5"/>
      <path d="M1112.63,337l29.28,41H43.12l29.29-41H1112.63m.51-1H71.9L41.18,379H1143.86l-30.72-43Z"/>
    </g>
  </g>
</svg>
