<?xml version="1.0" encoding="utf-8"?>
<!-- Generator: Adobe Illustrator 22.1.0, SVG Export Plug-In . SVG Version: 6.00 Build 0)  -->
<svg version="1.1" id="pio_x5F_face" 
     xmlns="http://www.w3.org/2000/svg" 
     xmlns:xlink="http://www.w3.org/1999/xlink" 
     x="0px"
	 y="0px" 
     viewBox="0 0 120 120" 
     style="enable-background:new 0 0 120 120;" 
     xml:space="preserve">
    <style type="text/css">
	    .st0{fill:none;stroke:#000000;stroke-width:1.6;stroke-miterlimit:10;}
	    .st1{fill:none;stroke:#BC9E00;stroke-width:1.1012;stroke-miterlimit:10;}
	    .st2{fill:url(#SVGID_1_);}
	    .st3{fill:#FFFF00;}
    </style>

    <g id="left_x5F_eye">
	    <g id="eyeball_1_">
		    <circle cx="30.5" cy="45.3" r="5.6"/>
		    <g>
			    <path d="M33.7,45.6c-0.9,4.1-7.1,3.4-6.3-0.9c0.3-1.7,2-2.9,3.7-2.5c2,0.4,2.7,2.2,2.5,4c-0.3,3.1,4.5,3,4.8,0
				    c0.5-4.3-2.6-8.3-7-8.8c-4.2-0.5-8.1,2.5-8.8,6.7c-0.6,4.2,2.2,8.2,6.3,9c4.3,0.9,8.4-2,9.4-6.3C39,43.9,34.4,42.6,33.7,45.6z" />
		    </g>
	    </g>
	    <line id="eyebrow_1_" class="st0" x1="45.5" y1="33.6" x2="16.8" y2="32.4"/>
    </g>

    <g id="right_x5F_eye">
	    <g id="eyeball">
		    <circle cx="87.7" cy="45.9" r="5.6"/>
		    <g>
			    <path d="M90.9,45.9c-0.3,1.7-1.3,3.2-3.2,3.3c-1.8,0-3.3-1.6-3.2-3.4c0.3-4.3,6.5-3.5,6.3,0.8c-0.1,3.1,4.7,3.1,4.8,0
				    c0.2-4.3-3-8.2-7.4-8.5c-4.2-0.3-8,2.9-8.5,7.1c-0.5,4.2,2.5,8.1,6.7,8.7c4.3,0.6,8.4-2.4,9.1-6.7C96,44.1,91.4,42.8,90.9,45.9z" />
		    </g>
	    </g>
	    <line id="eyebrow" class="st0" x1="102.1" y1="32.8" x2="73.4" y2="35.2" />
    </g>

    <ellipse id="mouth" cx="60.4" cy="88.2" rx="35.2" ry="8.8" />

    <g id="power_x5F_halo">
	    <ellipse id="power_x5F_band" class="st1" cx="60" cy="18.3" rx="48" ry="5.3" />
	    <g id="power_x5F_crystal">
			    <radialGradient id="SVGID_1_" cx="59.9635" cy="23.8" r="3.0067" gradientTransform="matrix(2.832769e-16 -1 0.35 9.914693e-17 51.6335 83.7635)" gradientUnits="userSpaceOnUse">
			    <stop  offset="0" style="stop-color:#FFFFFF" />
			    <stop  offset="1" style="stop-color:#BB9456" />
		    </radialGradient>
		    <ellipse class="st2" cx="60" cy="23.8" rx="3.2" ry="2.8"/>
		    <g>
			    <path class="st3" d="M55.3,23.8c0.2,2.4,2.2,4.2,4.6,4.2c2.3,0,4.6-1.8,4.6-4.2c0-2.4-2.2-4.1-4.4-4.2
				    C57.6,19.5,55.5,21.3,55.3,23.8c-0.1,1.8,2.7,1.8,2.8,0c0.1-1.8,3.6-1.8,3.6,0c0,1.8-3.4,1.8-3.6,0C58.1,22,55.2,22,55.3,23.8z" />
		    </g>
	    </g>
    </g>
</svg>
